<?xml version="1.0" encoding="utf-8"?>
<!-- Generator: Adobe Illustrator 23.0.6, SVG Export Plug-In . SVG Version: 6.00 Build 0)  -->
<svg version="1.1" id="Layer_1" xmlns="http://www.w3.org/2000/svg" xmlns:xlink="http://www.w3.org/1999/xlink" x="0px" y="0px"
	 width="120px" height="380px" viewBox="0 0 120 380" style="enable-background:new 0 0 120 380;" xml:space="preserve">
<rect x="-0.0076" y="0" width="120.0076" height="379.9999"/>
<path style="fill:#161616;" d="M-0.0076,0v379.9999H120V0H-0.0076z M17.5445,376.0302h-2.5512h-2.5512
	c-1.2472,0-2.3811-0.5103-3.2031-1.3323c-0.822-0.8221-1.3323-1.9559-1.3323-3.2032s0.5102-2.3811,1.3323-3.2032
	c0.822-0.822,1.9559-1.3323,3.2031-1.3323h2.5512h2.5512c1.2473,0,2.3811,0.5103,3.2032,1.3323
	c0.8221,0.8221,1.3323,1.9559,1.3323,3.2032s-0.5102,2.3811-1.3323,3.2032C19.9257,375.52,18.7918,376.0302,17.5445,376.0302z
	 M17.5445,13.0406h-2.5512h-2.5512c-1.2472,0-2.3811-0.5102-3.2031-1.3323S7.9068,9.7524,7.9068,8.5052S8.417,6.1241,9.2391,5.3021
	s1.9559-1.3323,3.2031-1.3323h2.5512h2.5512c1.2473,0,2.3811,0.5102,3.2032,1.3323S22.08,7.258,22.08,8.5052
	c0,1.2473-0.5102,2.3811-1.3323,3.2032S18.7918,13.0406,17.5445,13.0406z M107.5502,376.0302h-2.4288h-2.4288
	c-1.1915,0-2.3253-0.4321-3.1894-1.1607s-1.4582-1.7538-1.5703-2.9399c-0.127-1.3438,0.3422-2.5864,1.1729-3.493
	c0.8307-0.9066,2.0229-1.4773,3.3419-1.4773h2.4288h2.4288c1.1915,0,2.3253,0.4321,3.1894,1.1607s1.4582,1.7538,1.5703,2.9399
	c0.127,1.3438-0.3422,2.5864-1.1729,3.493S108.8693,376.0302,107.5502,376.0302z M107.5502,13.0406h-2.4288h-2.4288
	c-1.1915,0-2.3253-0.432-3.1894-1.1606c-0.864-0.7286-1.4582-1.7537-1.5703-2.9399c-0.127-1.3438,0.3422-2.5864,1.1729-3.493
	c0.8307-0.9066,2.0229-1.4773,3.342-1.4773h2.4288h2.4288c1.1915,0,2.3253,0.4321,3.1893,1.1607s1.4582,1.7538,1.5702,2.9399
	c0.127,1.3438-0.3422,2.5864-1.1729,3.493C110.0615,12.47,108.8693,13.0406,107.5502,13.0406z"/>
<path style="fill:#DBDBDA;" d="M88.983,266.1995h22.9754c1.3857,0,2.5195,1.1338,2.5195,2.5194v22.9755
	c0,1.3857-1.1338,2.5195-2.5195,2.5195H88.983c-1.3857,0-2.5195-1.1338-2.5195-2.5195V268.719
	C86.4636,267.3333,87.5973,266.1995,88.983,266.1995z"/>
<path style="fill:#DBDBDA;" d="M15.6642,266.1995L15.6642,266.1995c7.7039,0,14.0072,6.3032,14.0072,14.0071v0.0001
	c0,7.7039-6.3032,14.0071-14.0071,14.0071l0,0c-7.7039,0-14.0071-6.3032-14.0071-14.0071v-0.0001
	C1.6571,272.5027,7.9603,266.1995,15.6642,266.1995z"/>
<g>
	<circle style="opacity:0.5;enable-background:new    ;" cx="23.1277" cy="72.3688" r="13.1352"/>
	<circle style="opacity:0.5;enable-background:new    ;" cx="96.8648" cy="72.3688" r="13.1352"/>
	<circle style="opacity:0.5;enable-background:new    ;" cx="23.1277" cy="123.5368" r="13.1352"/>
	<circle style="opacity:0.5;enable-background:new    ;" cx="96.8648" cy="123.5368" r="13.1352"/>
	<circle style="opacity:0.5;enable-background:new    ;" cx="23.1277" cy="174.7048" r="13.1352"/>
	<circle style="opacity:0.5;enable-background:new    ;" cx="96.8648" cy="174.7048" r="13.1352"/>
	<circle style="opacity:0.5;enable-background:new    ;" cx="23.1277" cy="225.8727" r="13.1352"/>
	<circle style="opacity:0.5;enable-background:new    ;" cx="96.8648" cy="225.8727" r="13.1352"/>
</g>
<g>
	<g>
		<path style="fill:#DBDBDA;" d="M16.737,250.2204c0.1411,0,0.292,0.042,0.4526,0.1265s0.3135,0.2134,0.459,0.3862
			s0.2622,0.3911,0.3506,0.6538c0.0889,0.2632,0.1333,0.5591,0.1333,0.8887c0,0.7002-0.2041,1.2471-0.6128,1.6401
			c-0.4082,0.3931-0.9556,0.5898-1.6421,0.5898c-0.4648,0-0.876-0.0903-1.2334-0.27c-0.3569-0.1802-0.6333-0.4404-0.8281-0.7808
			c-0.1953-0.3403-0.293-0.7476-0.293-1.2207c0-0.2935,0.043-0.5625,0.1289-0.8076s0.1963-0.4526,0.332-0.623
			c0.1357-0.1699,0.2803-0.3003,0.4341-0.3901c0.1533-0.0898,0.2969-0.1348,0.4297-0.1348c0.1357,0,0.2505,0.0503,0.3447,0.1514
			s0.1411,0.2236,0.1411,0.3677c0,0.0938-0.0244,0.1724-0.0728,0.2344c-0.0483,0.0625-0.1265,0.1323-0.2344,0.21
			c-0.2104,0.1382-0.3682,0.2827-0.4736,0.4336c-0.105,0.1509-0.1577,0.3428-0.1577,0.5752c0,0.335,0.1309,0.605,0.3926,0.8096
			c0.2612,0.2051,0.6191,0.3076,1.0732,0.3076c0.2134,0,0.4092-0.0264,0.5874-0.0791c0.1787-0.0527,0.3311-0.1289,0.457-0.2285
			s0.2212-0.2197,0.2861-0.3613c0.0654-0.1411,0.0977-0.2959,0.0977-0.4648c0-0.2271-0.0522-0.4214-0.1577-0.5835
			c-0.105-0.1616-0.2656-0.3052-0.4814-0.4297c-0.1274-0.0693-0.2271-0.144-0.2993-0.2241
			c-0.0718-0.0806-0.1079-0.1787-0.1079-0.2949c0-0.1382,0.0527-0.2534,0.1577-0.3447
			C16.5061,250.2658,16.6184,250.2204,16.737,250.2204z"/>
		<path style="fill:#DBDBDA;" d="M17.4514,249.444h-4.9165c-0.2271,0-0.3984-0.0503-0.5146-0.1514s-0.1743-0.2378-0.1743-0.4092
			c0-0.1719,0.0571-0.3101,0.1724-0.415c0.1147-0.1055,0.2871-0.1582,0.5166-0.1582h4.9165c0.23,0,0.4019,0.0537,0.5171,0.1602
			c0.1147,0.1064,0.1724,0.2441,0.1724,0.4131c0,0.166-0.0596,0.3008-0.1787,0.4048S17.6731,249.444,17.4514,249.444z"/>
		<path style="fill:#DBDBDA;" d="M17.6218,244.3156l-1.6445,1.001l0.5815,0.6143h0.9009c0.2188,0,0.3867,0.0576,0.5044,0.1724
			c0.1177,0.1152,0.1768,0.2471,0.1768,0.3965c0,0.1748-0.0581,0.3115-0.1748,0.4111c-0.1162,0.0996-0.2876,0.1494-0.5146,0.1494
			H12.618c-0.2515,0-0.4434-0.0483-0.5747-0.145c-0.1318-0.0972-0.1973-0.2354-0.1973-0.4155c0-0.1743,0.0596-0.3125,0.1782-0.415
			c0.1191-0.1025,0.2949-0.1538,0.5273-0.1538h2.749l-1.3369-1.2744c-0.1665-0.1582-0.2798-0.2783-0.3408-0.3613
			c-0.0605-0.083-0.0913-0.1841-0.0913-0.3032c0-0.1411,0.0449-0.2588,0.1353-0.353c0.0898-0.0942,0.2026-0.1411,0.3384-0.1411
			c0.166,0,0.3872,0.1538,0.6641,0.4609l0.5522,0.6021l1.8271-1.1626c0.1357-0.0859,0.2388-0.1475,0.3096-0.1851
			c0.0703-0.0371,0.1377-0.0557,0.2012-0.0557c0.1802,0,0.3218,0.0488,0.4258,0.1475c0.1035,0.0981,0.1558,0.2275,0.1558,0.3882
			c0,0.1382-0.0376,0.2446-0.1123,0.3193C17.9538,244.0876,17.8181,244.1887,17.6218,244.3156z"/>
	</g>
	<g>
		<path style="fill:#DBDBDA;" d="M44.9246,253.3718h0.9468c0.23,0,0.4019,0.0542,0.5171,0.1621
			c0.1147,0.1079,0.1724,0.2451,0.1724,0.4111c0,0.1631-0.0581,0.2974-0.1748,0.4028c-0.1162,0.105-0.2876,0.1577-0.5146,0.1577
			h-3.1558c-0.5093,0-0.7642-0.1841-0.7642-0.5522c0-0.1885,0.0596-0.3237,0.1787-0.4067c0.1191-0.0835,0.2949-0.1289,0.5273-0.1372
			c-0.2324-0.1357-0.4082-0.2749-0.5273-0.4175s-0.1787-0.3325-0.1787-0.5708s0.0596-0.4692,0.1787-0.6934
			s0.2769-0.3364,0.4731-0.3364c0.1387,0,0.2529,0.0479,0.3428,0.1431c0.0898,0.0957,0.1348,0.1987,0.1348,0.3096
			c0,0.0415-0.0254,0.1421-0.0767,0.3008c-0.0513,0.1597-0.0767,0.2998-0.0767,0.4219c0,0.166,0.0435,0.3018,0.1309,0.4067
			c0.0869,0.1055,0.2163,0.187,0.3882,0.2451c0.1714,0.0581,0.3755,0.0981,0.6123,0.1201
			C44.2956,253.361,44.5842,253.3718,44.9246,253.3718z"/>
		<path style="fill:#DBDBDA;" d="M45.0784,247.3347c0.3125,0,0.5806,0.0762,0.8032,0.2285c0.2231,0.1523,0.3916,0.377,0.5068,0.6748
			c0.1147,0.2974,0.1724,0.6592,0.1724,1.0854c0,0.4072-0.0625,0.7559-0.187,1.0464c-0.1245,0.291-0.2803,0.5054-0.4673,0.6436
			c-0.1865,0.1387-0.374,0.208-0.5625,0.208c-0.1245,0-0.231-0.0444-0.3198-0.1328c-0.0884-0.0889-0.1328-0.2007-0.1328-0.3364
			c0-0.1191,0.0293-0.2104,0.0874-0.2744c0.0581-0.0635,0.1396-0.1245,0.2446-0.1826c0.2021-0.1162,0.353-0.2554,0.4526-0.417
			c0.0996-0.1621,0.1494-0.3828,0.1494-0.6626c0-0.2271-0.0503-0.4131-0.1514-0.5586c-0.1011-0.145-0.2168-0.2178-0.3467-0.2178
			c-0.1992,0-0.3447,0.0757-0.436,0.2261c-0.0913,0.1514-0.1787,0.3994-0.2617,0.7456c-0.0967,0.3901-0.1982,0.708-0.3052,0.9531
			c-0.1064,0.2446-0.2471,0.4404-0.4214,0.5874c-0.1743,0.1465-0.3887,0.2202-0.6436,0.2202c-0.2271,0-0.4414-0.0679-0.6436-0.2036
			s-0.3633-0.3354-0.4839-0.6001c-0.1201-0.2642-0.1807-0.5835-0.1807-0.957c0-0.2935,0.0308-0.5571,0.0913-0.791
			c0.061-0.2339,0.1426-0.4292,0.2451-0.5854s0.2158-0.2754,0.3403-0.3569c0.1245-0.082,0.2466-0.1226,0.3657-0.1226
			c0.1299,0,0.2363,0.0435,0.3198,0.1309c0.083,0.0869,0.1245,0.2109,0.1245,0.3716c0,0.1162-0.0332,0.2153-0.0996,0.2969
			c-0.0669,0.0815-0.1665,0.1748-0.2993,0.2803c-0.1104,0.0859-0.1992,0.1865-0.2656,0.3032
			c-0.0664,0.1162-0.0996,0.2739-0.0996,0.4731c0,0.2051,0.0435,0.375,0.1309,0.5107c0.0869,0.1357,0.1958,0.2036,0.3257,0.2036
			c0.1191,0,0.2168-0.0498,0.293-0.1499c0.0762-0.0996,0.1392-0.2339,0.189-0.4023c0.0498-0.1689,0.1108-0.4014,0.1826-0.6978
			c0.0859-0.3516,0.1885-0.6387,0.3071-0.8618c0.1191-0.2227,0.2598-0.3916,0.4214-0.5063
			C44.6858,247.3923,44.8704,247.3347,45.0784,247.3347z"/>
		<path style="fill:#DBDBDA;" d="M42.051,246.3132v-0.1245h-0.6807c-0.1826,0-0.3262-0.0049-0.4297-0.0142
			c-0.104-0.0098-0.1934-0.0371-0.2681-0.0811c-0.0776-0.0444-0.1406-0.1079-0.189-0.1914
			c-0.0483-0.083-0.0728-0.1753-0.0728-0.2778c0-0.144,0.0542-0.2744,0.1621-0.3906c0.0718-0.0771,0.1597-0.1265,0.2637-0.1475
			c0.104-0.0205,0.251-0.0308,0.4424-0.0308h0.772v-0.4155c0-0.1602,0.0381-0.2827,0.1143-0.3672s0.1738-0.127,0.293-0.127
			c0.1523,0,0.2588,0.0605,0.3198,0.1807c0.0605,0.1206,0.0913,0.293,0.0913,0.5171v0.2119h2.0845
			c0.1768,0,0.3135-0.0063,0.4087-0.019c0.0957-0.0122,0.1733-0.0454,0.2324-0.0996c0.0596-0.0537,0.0894-0.1416,0.0894-0.2637
			c0-0.0664-0.0117-0.1562-0.0352-0.2695c-0.0234-0.1138-0.0352-0.2021-0.0352-0.2661c0-0.0913,0.0366-0.1733,0.1099-0.2471
			c0.0732-0.0732,0.1641-0.1099,0.272-0.1099c0.1826,0,0.3228,0.0996,0.4194,0.2988s0.1455,0.4858,0.1455,0.8599
			c0,0.354-0.0596,0.6226-0.1787,0.8052c-0.1191,0.1831-0.2837,0.3027-0.4941,0.3594s-0.4912,0.085-0.8428,0.085h-2.1758v0.1494
			c0,0.1636-0.0391,0.2881-0.1167,0.374c-0.0771,0.0859-0.1753,0.1284-0.2944,0.1284s-0.2168-0.0449-0.293-0.1348
			S42.051,246.485,42.051,246.3132z"/>
	</g>
	<g>
		<path style="fill:#DBDBDA;" d="M74.4861,251.3952c0.2134,0.2739,0.373,0.5391,0.4795,0.7954
			c0.1064,0.2559,0.1602,0.543,0.1602,0.8613c0,0.291-0.0576,0.5464-0.1724,0.7661c-0.1152,0.2202-0.2705,0.3896-0.4673,0.5088
			c-0.1963,0.1191-0.4097,0.1787-0.6396,0.1787c-0.3096,0-0.5742-0.0981-0.793-0.2949s-0.3652-0.4663-0.4399-0.8096
			c-0.0166-0.0723-0.0542-0.2505-0.1123-0.5356s-0.1113-0.5298-0.1597-0.7329c-0.0483-0.2036-0.1074-0.4243-0.1768-0.6626
			c-0.2988,0.0142-0.5181,0.0742-0.6582,0.1807c-0.1396,0.1069-0.2095,0.3276-0.2095,0.6626c0,0.2876,0.04,0.5044,0.1206,0.6494
			c0.0801,0.1455,0.2007,0.27,0.3608,0.374c0.1606,0.1035,0.2666,0.1772,0.3179,0.2202c0.0513,0.0425,0.0767,0.1348,0.0767,0.2759
			c0,0.1274-0.0405,0.2373-0.1226,0.3301c-0.0815,0.0928-0.186,0.1392-0.3135,0.1392c-0.1992,0-0.3931-0.0708-0.5811-0.2119
			c-0.1885-0.1411-0.3433-0.3613-0.4653-0.6602c-0.1216-0.2988-0.1826-0.6714-0.1826-1.1167c0-0.4985,0.0591-0.8901,0.1768-1.1753
			s0.3037-0.4863,0.5581-0.604c0.2549-0.1177,0.5928-0.1768,1.0132-0.1768c0.2661,0,0.4917,0.001,0.6772,0.002
			c0.1851,0.0015,0.3916,0.0039,0.6187,0.0063c0.2129,0,0.4351-0.0352,0.666-0.106c0.2314-0.0703,0.3804-0.1055,0.4468-0.1055
			c0.1162,0,0.2222,0.0547,0.3174,0.1636c0.0957,0.1094,0.1436,0.2334,0.1436,0.3721c0,0.1162-0.0547,0.231-0.1641,0.3442
			C74.8523,251.1476,74.6936,251.2682,74.4861,251.3952z M72.846,251.4699c0.061,0.166,0.1255,0.4077,0.1929,0.7246
			c0.0679,0.3169,0.1177,0.5366,0.1499,0.6582c0.0317,0.1221,0.0938,0.2383,0.1865,0.3486
			c0.0928,0.1108,0.2222,0.1665,0.3882,0.1665c0.1719,0,0.3179-0.0654,0.438-0.1953c0.1206-0.1299,0.1807-0.3003,0.1807-0.5107
			c0-0.2241-0.0488-0.4312-0.147-0.6206c-0.0986-0.1899-0.2251-0.3291-0.3804-0.4175c-0.1714-0.1025-0.4536-0.1538-0.8467-0.1538
			L72.846,251.4699L72.846,251.4699z"/>
		<path style="fill:#DBDBDA;" d="M74.4778,246.1013h-0.1123c0.1748,0.1523,0.3164,0.3022,0.4258,0.4507
			c0.1094,0.1479,0.1924,0.3086,0.249,0.4814c0.0566,0.1733,0.0854,0.3618,0.0854,0.5669c0,0.2715-0.0576,0.5225-0.1724,0.7534
			c-0.1152,0.2314-0.2788,0.4312-0.4922,0.6001s-0.4639,0.2969-0.7515,0.3843c-0.2881,0.0869-0.5996,0.1309-0.9346,0.1309
			c-0.7085,0-1.2607-0.1733-1.6567-0.519c-0.3955-0.3462-0.5938-0.8018-0.5938-1.3662c0-0.3267,0.0562-0.6021,0.1685-0.8262
			c0.1118-0.2246,0.2842-0.4429,0.5166-0.6562h-1.6733c-0.2324,0-0.4082-0.0464-0.5273-0.1392
			c-0.1187-0.0928-0.1782-0.2246-0.1782-0.3965c0-0.1714,0.0547-0.3037,0.1641-0.3965s0.2705-0.1392,0.4834-0.1392h4.9995
			c0.2158,0,0.3779,0.0498,0.4858,0.1494s0.1621,0.2285,0.1621,0.3862c0,0.1553-0.0562,0.2832-0.1685,0.3843
			C74.8455,246.051,74.6853,246.1013,74.4778,246.1013z M72.8128,248.3312c0.3071,0,0.5688-0.0479,0.7847-0.1436
			c0.2158-0.0952,0.3784-0.2261,0.4878-0.3921c0.1094-0.1665,0.1641-0.3477,0.1641-0.5439c0-0.1997-0.0518-0.3813-0.1558-0.5464
			c-0.1035-0.1646-0.2627-0.2959-0.4775-0.3945c-0.2144-0.0981-0.4819-0.147-0.8032-0.147c-0.3018,0-0.561,0.0488-0.7788,0.147
			c-0.2173,0.0986-0.3833,0.2314-0.498,0.3989s-0.1724,0.3506-0.1724,0.5503c0,0.2075,0.0591,0.3931,0.1763,0.5562
			c0.1177,0.1636,0.2866,0.29,0.5068,0.3799C72.2669,248.2863,72.5222,248.3312,72.8128,248.3312z"/>
		<path style="fill:#DBDBDA;" d="M71.2224,243.2033l2.5742-0.918l-2.6865-0.9883c-0.2158-0.0771-0.3687-0.1533-0.4585-0.228
			c-0.0903-0.0747-0.1353-0.1885-0.1353-0.3408c0-0.1436,0.0483-0.2661,0.1455-0.3672c0.0967-0.1011,0.209-0.1519,0.3364-0.1519
			c0.0498,0,0.1079,0.0093,0.1743,0.0273s0.1284,0.0386,0.187,0.062c0.0581,0.0234,0.1245,0.0508,0.1992,0.0811l2.6987,1.0879
			c0.0776,0.0303,0.1758,0.0698,0.2949,0.1182c0.1191,0.0488,0.2207,0.1025,0.3052,0.1621s0.1504,0.1328,0.1973,0.2202
			c0.0469,0.0869,0.0708,0.1929,0.0708,0.3174c0,0.1606-0.0371,0.2886-0.1104,0.3843s-0.1533,0.166-0.2407,0.2119
			c-0.0874,0.0454-0.2593,0.1221-0.5171,0.2305l-2.6699,1.0796c-0.0664,0.0249-0.1328,0.0503-0.1992,0.0767
			s-0.1343,0.0483-0.2036,0.0664c-0.0688,0.0181-0.1284,0.0269-0.1782,0.0269c-0.0776,0-0.1543-0.0234-0.2305-0.0703
			c-0.0762-0.0474-0.1387-0.1123-0.187-0.1953s-0.0728-0.1729-0.0728-0.27c0-0.188,0.0542-0.3174,0.1621-0.3882
			C70.7864,243.3674,70.9675,243.2888,71.2224,243.2033z"/>
	</g>
	<g>
		<path style="fill:#DBDBDA;" d="M101.241,249.9919c0.3379,0,0.6489,0.0527,0.9341,0.1577c0.2852,0.1055,0.5303,0.2573,0.7349,0.457
			c0.2051,0.1992,0.3623,0.437,0.4717,0.7139s0.1641,0.5884,0.1641,0.9346c0,0.3433-0.0557,0.6519-0.1665,0.9258
			c-0.1104,0.2739-0.269,0.5112-0.4751,0.7119c-0.2065,0.2007-0.4497,0.353-0.731,0.457c-0.2808,0.1035-0.5918,0.1558-0.9321,0.1558
			c-0.3433,0-0.6572-0.0527-0.9424-0.1577c-0.2852-0.1055-0.5288-0.2563-0.731-0.4526c-0.2021-0.1968-0.3579-0.4346-0.4673-0.7144
			s-0.1641-0.5884-0.1641-0.9258c0-0.3433,0.0557-0.6548,0.166-0.9346c0.1108-0.2793,0.2686-0.519,0.4736-0.7183
			c0.2046-0.1992,0.4482-0.3511,0.731-0.4546C100.5891,250.0436,100.9007,249.9919,101.241,249.9919z M101.241,251.1296
			c-0.4624,0-0.8223,0.1016-1.0796,0.3052s-0.3862,0.4771-0.3862,0.8203c0,0.2212,0.0576,0.4165,0.1724,0.5854
			c0.1147,0.1685,0.2842,0.2988,0.5088,0.3901c0.2241,0.0913,0.4858,0.1372,0.7847,0.1372c0.2964,0,0.5552-0.0449,0.7764-0.1353
			c0.2217-0.0898,0.3911-0.2188,0.5088-0.3862s0.1763-0.3647,0.1763-0.5913c0-0.3433-0.1294-0.6167-0.3882-0.8203
			S101.6975,251.1296,101.241,251.1296z"/>
		<path style="fill:#DBDBDA;" d="M102.906,246.1555h-0.1455c0.1719,0.1353,0.3159,0.2778,0.4321,0.4277
			c0.1162,0.1494,0.2026,0.3125,0.2593,0.4897s0.0854,0.3794,0.0854,0.6064c0,0.2739-0.0571,0.5195-0.1704,0.7368
			s-0.27,0.3857-0.4692,0.5044c-0.2407,0.1411-0.5869,0.2119-1.0381,0.2119H99.613c-0.2266,0-0.3965-0.0513-0.5083-0.1538
			c-0.1123-0.1021-0.1685-0.2378-0.1685-0.4067c0-0.1719,0.0566-0.3101,0.1704-0.415c0.1133-0.1055,0.2822-0.1582,0.5063-0.1582
			h1.8149c0.2627,0,0.4834-0.022,0.6621-0.0664c0.1787-0.0439,0.3184-0.1235,0.4194-0.2388
			c0.1011-0.1147,0.1514-0.2705,0.1514-0.4668c0-0.1914-0.0566-0.3711-0.1699-0.54c-0.1138-0.1689-0.2617-0.292-0.4443-0.3696
			c-0.1606-0.0635-0.5122-0.0952-1.0547-0.0952h-1.3789c-0.2241,0-0.3931-0.0527-0.5063-0.1577
			c-0.1138-0.1055-0.1704-0.2422-0.1704-0.4111s0.0562-0.3047,0.1685-0.4072c0.1118-0.1021,0.2817-0.1533,0.5083-0.1533h3.2847
			c0.2158,0,0.3779,0.0488,0.4858,0.1475c0.1079,0.0981,0.1621,0.2246,0.1621,0.3799c0,0.1548-0.0562,0.2827-0.1685,0.3838
			C103.2654,246.1047,103.1082,246.1555,102.906,246.1555z"/>
		<path style="fill:#DBDBDA;" d="M99.0359,243.9006v-0.1245h-0.6807c-0.1826,0-0.3262-0.0049-0.4297-0.0142
			c-0.104-0.0098-0.1934-0.0371-0.2681-0.0811c-0.0776-0.0444-0.1406-0.1079-0.189-0.1914
			c-0.0483-0.083-0.0728-0.1753-0.0728-0.2778c0-0.144,0.0542-0.2744,0.1621-0.3906c0.0718-0.0771,0.1597-0.1265,0.2637-0.1475
			c0.104-0.0205,0.251-0.0308,0.4424-0.0308h0.772v-0.4155c0-0.1602,0.0381-0.2827,0.1143-0.3672s0.1738-0.127,0.293-0.127
			c0.1523,0,0.2588,0.0605,0.3198,0.1807c0.0605,0.1206,0.0913,0.293,0.0913,0.5171v0.2119h2.0845
			c0.1768,0,0.3135-0.0063,0.4087-0.019c0.0957-0.0122,0.1733-0.0454,0.2324-0.0996c0.0596-0.0537,0.0894-0.1416,0.0894-0.2637
			c0-0.0664-0.0117-0.1562-0.0352-0.2695c-0.0234-0.1138-0.0352-0.2021-0.0352-0.2661c0-0.0913,0.0366-0.1733,0.1099-0.2471
			c0.0732-0.0732,0.1641-0.1099,0.272-0.1099c0.1826,0,0.3228,0.0996,0.4194,0.2988s0.1455,0.4858,0.1455,0.8599
			c0,0.354-0.0596,0.6226-0.1787,0.8052c-0.1191,0.1831-0.2837,0.3027-0.4941,0.3594s-0.4912,0.085-0.8428,0.085h-2.1758v0.1494
			c0,0.1636-0.0391,0.2881-0.1167,0.374c-0.0771,0.0859-0.1753,0.1284-0.2944,0.1284s-0.2168-0.0449-0.293-0.1348
			S99.0359,244.0724,99.0359,243.9006z"/>
	</g>
</g>
<line style="fill:none;stroke:#DBDBDA;stroke-width:2.8346;stroke-linecap:round;stroke-linejoin:round;stroke-miterlimit:10;" x1="29.6714" y1="300.6471" x2="114.4779" y2="300.6471"/>
<g>
	<path style="fill:#DBDBDA;" d="M12.011,300.649c0,0.3379-0.0527,0.6489-0.1577,0.9341c-0.1055,0.2852-0.2573,0.5303-0.457,0.7349
		c-0.1992,0.2051-0.437,0.3623-0.7139,0.4717s-0.5884,0.1641-0.9346,0.1641c-0.3433,0-0.6519-0.0557-0.9258-0.1665
		c-0.2739-0.1104-0.5112-0.269-0.7119-0.4751c-0.2007-0.2065-0.353-0.4497-0.457-0.731c-0.1035-0.2808-0.1558-0.5918-0.1558-0.9321
		c0-0.3433,0.0527-0.6572,0.1577-0.9424c0.1055-0.2852,0.2563-0.5288,0.4526-0.731c0.1968-0.2021,0.4346-0.3579,0.7144-0.4673
		s0.5884-0.1641,0.9258-0.1641c0.3433,0,0.6548,0.0557,0.9346,0.166c0.2793,0.1108,0.519,0.2686,0.7183,0.4736
		c0.1992,0.2046,0.3511,0.4482,0.4546,0.731C11.9593,299.9972,12.011,300.3087,12.011,300.649z M10.8733,300.649
		c0-0.4624-0.1016-0.8223-0.3052-1.0796s-0.4771-0.3862-0.8203-0.3862c-0.2212,0-0.4165,0.0576-0.5854,0.1724
		c-0.1685,0.1147-0.2988,0.2842-0.3901,0.5088c-0.0913,0.2241-0.1372,0.4858-0.1372,0.7847c0,0.2964,0.0449,0.5552,0.1353,0.7764
		c0.0898,0.2217,0.2188,0.3911,0.3862,0.5088s0.3647,0.1763,0.5913,0.1763c0.3433,0,0.6167-0.1294,0.8203-0.3882
		S10.8733,301.1056,10.8733,300.649z"/>
	<path style="fill:#DBDBDA;" d="M15.848,302.3141v-0.1455c-0.1353,0.1719-0.2778,0.3159-0.4277,0.4321
		c-0.1494,0.1162-0.3125,0.2026-0.4897,0.2593s-0.3794,0.0854-0.6064,0.0854c-0.2739,0-0.5195-0.0571-0.7368-0.1704
		s-0.3857-0.27-0.5044-0.4692c-0.1411-0.2407-0.2119-0.5869-0.2119-1.0381v-2.2466c0-0.2266,0.0513-0.3965,0.1538-0.5083
		c0.1021-0.1123,0.2378-0.1685,0.4067-0.1685c0.1719,0,0.3101,0.0566,0.415,0.1704c0.1055,0.1133,0.1582,0.2822,0.1582,0.5063
		v1.8149c0,0.2627,0.022,0.4834,0.0664,0.6621c0.0439,0.1787,0.1235,0.3184,0.2388,0.4194
		c0.1147,0.1011,0.2705,0.1514,0.4668,0.1514c0.1914,0,0.3711-0.0566,0.54-0.1699c0.1689-0.1138,0.292-0.2617,0.3696-0.4443
		c0.0635-0.1606,0.0952-0.5122,0.0952-1.0547v-1.3789c0-0.2241,0.0527-0.3931,0.1577-0.5063
		c0.1055-0.1138,0.2422-0.1704,0.4111-0.1704s0.3047,0.0562,0.4072,0.1685c0.1021,0.1118,0.1533,0.2817,0.1533,0.5083v3.2847
		c0,0.2158-0.0488,0.3779-0.1475,0.4858c-0.0981,0.1079-0.2246,0.1621-0.3799,0.1621c-0.1548,0-0.2827-0.0562-0.3838-0.1685
		C15.8987,302.6734,15.848,302.5162,15.848,302.3141z"/>
	<path style="fill:#DBDBDA;" d="M18.1028,298.4439h0.1245v-0.6807c0-0.1826,0.0049-0.3262,0.0142-0.4297
		c0.0098-0.104,0.0371-0.1934,0.0811-0.2681c0.0444-0.0776,0.1079-0.1406,0.1914-0.189c0.083-0.0483,0.1753-0.0728,0.2778-0.0728
		c0.144,0,0.2744,0.0542,0.3906,0.1621c0.0771,0.0718,0.1265,0.1597,0.1475,0.2637c0.0205,0.104,0.0308,0.251,0.0308,0.4424v0.772
		h0.4155c0.1602,0,0.2827,0.0381,0.3672,0.1143s0.127,0.1738,0.127,0.293c0,0.1523-0.0605,0.2588-0.1807,0.3198
		c-0.1206,0.0605-0.293,0.0913-0.5171,0.0913h-0.2119v2.0845c0,0.1768,0.0063,0.3135,0.019,0.4087
		c0.0122,0.0957,0.0454,0.1733,0.0996,0.2324c0.0537,0.0596,0.1416,0.0894,0.2637,0.0894c0.0664,0,0.1562-0.0117,0.2695-0.0352
		c0.1138-0.0234,0.2021-0.0352,0.2661-0.0352c0.0913,0,0.1733,0.0366,0.2471,0.1099c0.0732,0.0732,0.1099,0.1641,0.1099,0.272
		c0,0.1826-0.0996,0.3228-0.2988,0.4194s-0.4858,0.1455-0.8599,0.1455c-0.354,0-0.6226-0.0596-0.8052-0.1787
		c-0.1831-0.1191-0.3027-0.2837-0.3594-0.4941s-0.085-0.4912-0.085-0.8428v-2.1758h-0.1494c-0.1636,0-0.2881-0.0391-0.374-0.1167
		c-0.0859-0.0771-0.1284-0.1753-0.1284-0.2944s0.0449-0.2168,0.1348-0.293S17.931,298.4439,18.1028,298.4439z"/>
	<path style="fill:#DBDBDA;" d="M24.7005,301.4713c0,0.3125-0.0762,0.5806-0.2285,0.8032c-0.1523,0.2231-0.377,0.3916-0.6748,0.5068
		c-0.2974,0.1147-0.6592,0.1724-1.0854,0.1724c-0.4072,0-0.7559-0.0625-1.0464-0.187c-0.291-0.1245-0.5054-0.2803-0.6436-0.4673
		c-0.1387-0.1865-0.208-0.374-0.208-0.5625c0-0.1245,0.0444-0.231,0.1328-0.3198c0.0889-0.0884,0.2007-0.1328,0.3364-0.1328
		c0.1191,0,0.2104,0.0293,0.2744,0.0874c0.0635,0.0581,0.1245,0.1396,0.1826,0.2446c0.1162,0.2021,0.2554,0.353,0.417,0.4526
		c0.1621,0.0996,0.3828,0.1494,0.6626,0.1494c0.2271,0,0.4131-0.0503,0.5586-0.1514c0.145-0.1011,0.2178-0.2168,0.2178-0.3467
		c0-0.1992-0.0757-0.3447-0.2261-0.436c-0.1514-0.0913-0.3994-0.1787-0.7456-0.2617c-0.3901-0.0967-0.708-0.1982-0.9531-0.3052
		c-0.2446-0.1064-0.4404-0.2471-0.5874-0.4214c-0.1465-0.1743-0.2202-0.3887-0.2202-0.6436c0-0.2271,0.0679-0.4414,0.2036-0.6436
		s0.3354-0.3633,0.6001-0.4839c0.2642-0.1201,0.5835-0.1807,0.957-0.1807c0.2935,0,0.5571,0.0308,0.791,0.0913
		c0.2339,0.061,0.4292,0.1426,0.5854,0.2451s0.2754,0.2158,0.3569,0.3403c0.082,0.1245,0.1226,0.2466,0.1226,0.3657
		c0,0.1299-0.0435,0.2363-0.1309,0.3198c-0.0869,0.083-0.2109,0.1245-0.3716,0.1245c-0.1162,0-0.2153-0.0332-0.2969-0.0996
		c-0.0815-0.0669-0.1748-0.1665-0.2803-0.2993c-0.0859-0.1104-0.1865-0.1992-0.3032-0.2656
		c-0.1162-0.0664-0.2739-0.0996-0.4731-0.0996c-0.2051,0-0.375,0.0435-0.5107,0.1309c-0.1357,0.0869-0.2036,0.1958-0.2036,0.3257
		c0,0.1191,0.0498,0.2168,0.1499,0.293c0.0996,0.0762,0.2339,0.1392,0.4023,0.189c0.1689,0.0498,0.4014,0.1108,0.6978,0.1826
		c0.3516,0.0859,0.6387,0.1885,0.8618,0.3071c0.2227,0.1191,0.3916,0.2598,0.5063,0.4214
		C24.6429,301.0787,24.7005,301.2633,24.7005,301.4713z"/>
</g>
<g>
	
		<line style="fill:none;stroke:#DBDBDA;stroke-width:1.1339;stroke-linecap:round;stroke-linejoin:round;stroke-miterlimit:10;" x1="23.1897" y1="89.877" x2="23.1897" y2="104.1889"/>
	
		<line style="fill:none;stroke:#DBDBDA;stroke-width:1.1339;stroke-linecap:round;stroke-linejoin:round;stroke-miterlimit:10;" x1="23.1403" y1="192.2129" x2="23.1403" y2="206.5248"/>
	
		<line style="fill:none;stroke:#DBDBDA;stroke-width:1.1339;stroke-linecap:round;stroke-linejoin:round;stroke-miterlimit:10;" x1="23.1897" y1="141.0449" x2="23.1897" y2="155.3568"/>
	
		<line style="fill:none;stroke:#DBDBDA;stroke-width:1.1339;stroke-linecap:round;stroke-linejoin:round;stroke-miterlimit:10;" x1="96.8895" y1="89.877" x2="96.8895" y2="104.1889"/>
	
		<line style="fill:none;stroke:#DBDBDA;stroke-width:1.1339;stroke-linecap:round;stroke-linejoin:round;stroke-miterlimit:10;" x1="96.8401" y1="192.2129" x2="96.8401" y2="206.5248"/>
	
		<line style="fill:none;stroke:#DBDBDA;stroke-width:1.1339;stroke-linecap:round;stroke-linejoin:round;stroke-miterlimit:10;" x1="96.8895" y1="141.0449" x2="96.8895" y2="155.3568"/>
	
		<line style="fill:none;stroke:#DBDBDA;stroke-width:1.1339;stroke-linecap:round;stroke-linejoin:round;stroke-miterlimit:10;" x1="76.9918" y1="70.529" x2="42.976" y2="70.529"/>
	
		<line style="fill:none;stroke:#DBDBDA;stroke-width:1.1339;stroke-linecap:round;stroke-linejoin:round;stroke-miterlimit:10;" x1="76.9918" y1="224.033" x2="42.976" y2="224.033"/>
	
		<line style="fill:none;stroke:#DBDBDA;stroke-width:1.1339;stroke-linecap:round;stroke-linejoin:round;stroke-miterlimit:10;" x1="42.976" y1="70.529" x2="46.5447" y2="66.9603"/>
	
		<line style="fill:none;stroke:#DBDBDA;stroke-width:1.1339;stroke-linecap:round;stroke-linejoin:round;stroke-miterlimit:10;" x1="23.1897" y1="104.1889" x2="19.621" y2="100.6202"/>
	
		<line style="fill:none;stroke:#DBDBDA;stroke-width:1.1339;stroke-linecap:round;stroke-linejoin:round;stroke-miterlimit:10;" x1="23.1897" y1="155.3568" x2="19.621" y2="151.7881"/>
	
		<line style="fill:none;stroke:#DBDBDA;stroke-width:1.1339;stroke-linecap:round;stroke-linejoin:round;stroke-miterlimit:10;" x1="23.1403" y1="206.5248" x2="19.5716" y2="202.9561"/>
	
		<line style="fill:none;stroke:#DBDBDA;stroke-width:1.1339;stroke-linecap:round;stroke-linejoin:round;stroke-miterlimit:10;" x1="73.4231" y1="227.6017" x2="76.9918" y2="224.033"/>
	
		<line style="fill:none;stroke:#DBDBDA;stroke-width:1.1339;stroke-linecap:round;stroke-linejoin:round;stroke-miterlimit:10;" x1="100.4088" y1="195.7816" x2="96.8401" y2="192.2129"/>
	
		<line style="fill:none;stroke:#DBDBDA;stroke-width:1.1339;stroke-linecap:round;stroke-linejoin:round;stroke-miterlimit:10;" x1="100.4582" y1="144.6136" x2="96.8895" y2="141.0449"/>
	
		<line style="fill:none;stroke:#DBDBDA;stroke-width:1.1339;stroke-linecap:round;stroke-linejoin:round;stroke-miterlimit:10;" x1="100.4582" y1="93.4457" x2="96.8895" y2="89.877"/>
</g>
<g style="opacity:0.45;">
	<path style="fill:#DBDBDA;" d="M48.4804,8.7834v2.0098c0,0.3174-0.0718,0.5557-0.2158,0.7144s-0.334,0.2378-0.5703,0.2378
		c-0.229,0-0.4146-0.0791-0.5562-0.2378c-0.1426-0.1587-0.2134-0.397-0.2134-0.7144V8.385c0-0.3804-0.0132-0.6753-0.0386-0.8857
		c-0.0259-0.2104-0.0962-0.3828-0.2104-0.5176c-0.1147-0.1348-0.2954-0.2021-0.5425-0.2021c-0.4946,0-0.8203,0.1699-0.9775,0.5093
		c-0.1567,0.3394-0.2354,0.8267-0.2354,1.4614v2.043c0,0.314-0.0708,0.5508-0.2129,0.7114s-0.3296,0.2407-0.562,0.2407
		c-0.229,0-0.416-0.0801-0.562-0.2407s-0.2188-0.3975-0.2188-0.7114V6.4695c0-0.2842,0.0654-0.5,0.1968-0.6479
		c0.1309-0.1475,0.3037-0.2212,0.5176-0.2212c0.2065,0,0.3794,0.0688,0.5176,0.2075c0.1387,0.1382,0.2075,0.3291,0.2075,0.5728
		v0.144c0.2622-0.3135,0.543-0.5444,0.8418-0.6919s0.6309-0.2217,0.9966-0.2217c0.3799,0,0.7065,0.0757,0.98,0.2271
		c0.2729,0.1514,0.498,0.3804,0.6753,0.6865c0.2549-0.3101,0.5278-0.5396,0.8193-0.689c0.2915-0.1499,0.6147-0.2246,0.9688-0.2246
		c0.4136,0,0.7695,0.0815,1.0688,0.2437c0.2988,0.1626,0.522,0.395,0.6699,0.6978c0.1289,0.2729,0.1938,0.7031,0.1938,1.29v2.9507
		c0,0.3174-0.0723,0.5557-0.2163,0.7144c-0.1436,0.1587-0.334,0.2378-0.5703,0.2378c-0.2285,0-0.416-0.0801-0.5615-0.2407
		c-0.146-0.1606-0.2188-0.3975-0.2188-0.7114v-2.541c0-0.3247-0.0142-0.585-0.0415-0.7808
		c-0.0278-0.1953-0.1025-0.3599-0.2246-0.4927c-0.1216-0.1328-0.3062-0.1992-0.5532-0.1992c-0.1997,0-0.3887,0.0591-0.5679,0.1772
		c-0.1787,0.1182-0.3184,0.2769-0.418,0.4761C48.536,7.6872,48.4804,8.1379,48.4804,8.7834z"/>
	<path style="fill:#DBDBDA;" d="M59.1439,8.6731c0,0.4502-0.0703,0.8652-0.2104,1.2456c-0.1401,0.3799-0.3433,0.7065-0.6089,0.98
		c-0.2661,0.2729-0.5835,0.4824-0.9526,0.6284c-0.3691,0.1455-0.7842,0.2183-1.2456,0.2183c-0.4575,0-0.8691-0.0737-1.2344-0.2212
		c-0.3657-0.1475-0.6821-0.3589-0.9497-0.6338s-0.4707-0.6001-0.6089-0.9746c-0.1387-0.3745-0.2075-0.7891-0.2075-1.2427
		c0-0.458,0.0698-0.877,0.2104-1.2568c0.1401-0.3804,0.3413-0.7051,0.6035-0.9746c0.2617-0.2695,0.5791-0.4771,0.9521-0.6226
		c0.3726-0.146,0.7842-0.2188,1.2344-0.2188c0.4575,0,0.873,0.0737,1.2456,0.2212c0.373,0.1479,0.6924,0.3579,0.958,0.6313
		c0.2656,0.2729,0.4678,0.5977,0.6064,0.9741C59.0746,7.8034,59.1439,8.219,59.1439,8.6731z M57.6268,8.6731
		c0-0.6167-0.1357-1.0962-0.4067-1.4395c-0.2715-0.3433-0.6362-0.5151-1.0938-0.5151c-0.2954,0-0.5557,0.0767-0.7803,0.23
		c-0.2256,0.1528-0.3989,0.3789-0.5205,0.6782c-0.1221,0.2988-0.1826,0.6475-0.1826,1.0464c0,0.3945,0.0596,0.7397,0.1797,1.0352
		s0.2915,0.5215,0.5146,0.6782c0.2236,0.1567,0.4863,0.2354,0.7891,0.2354c0.4575,0,0.8223-0.1729,1.0938-0.5176
		C57.4911,9.759,57.6268,9.282,57.6268,8.6731z"/>
	<path style="fill:#DBDBDA;" d="M61.8339,9.5642v1.2622c0,0.3066-0.0718,0.5361-0.2158,0.6895
		c-0.144,0.1528-0.3267,0.2295-0.5479,0.2295c-0.2178,0-0.397-0.0771-0.5371-0.2324c-0.1401-0.1548-0.2104-0.3838-0.2104-0.6865
		V6.6189c0-0.6792,0.2456-1.0186,0.7363-1.0186c0.251,0,0.4321,0.0791,0.5425,0.2378c0.1108,0.1587,0.1719,0.3931,0.1826,0.7031
		c0.1812-0.3101,0.3667-0.5444,0.5566-0.7031s0.4438-0.2378,0.7612-0.2378s0.6255,0.0791,0.9248,0.2378
		c0.2988,0.1587,0.4482,0.3691,0.4482,0.6313c0,0.1846-0.0635,0.3369-0.1909,0.4565c-0.1274,0.1201-0.2651,0.1802-0.4126,0.1802
		c-0.0552,0-0.189-0.0342-0.4014-0.1025s-0.3994-0.1025-0.562-0.1025c-0.2212,0-0.4023,0.0581-0.5425,0.1743
		s-0.249,0.2891-0.3267,0.5181c-0.0776,0.2285-0.1309,0.501-0.1606,0.8164C61.849,8.7253,61.8339,9.1101,61.8339,9.5642z"/>
	<path style="fill:#DBDBDA;" d="M69.8842,9.7693c0,0.417-0.1016,0.7739-0.3042,1.0713c-0.2031,0.2969-0.5029,0.522-0.8999,0.6753
		c-0.3965,0.1528-0.8794,0.2295-1.4478,0.2295c-0.5425,0-1.0073-0.083-1.395-0.249s-0.6738-0.3735-0.8584-0.6226
		c-0.1846-0.2495-0.2769-0.4995-0.2769-0.7505c0-0.166,0.0591-0.3081,0.1772-0.4263s0.2676-0.1772,0.4487-0.1772
		c0.1587,0,0.2803,0.0391,0.3652,0.1162c0.085,0.0776,0.166,0.1865,0.2437,0.3267c0.1548,0.2695,0.3403,0.4707,0.5562,0.6035
		c0.2163,0.1328,0.5103,0.1997,0.8833,0.1997c0.3027,0,0.5508-0.0674,0.7446-0.2021s0.2905-0.2891,0.2905-0.4624
		c0-0.2656-0.1006-0.4595-0.3018-0.5815c-0.2012-0.1216-0.5322-0.2378-0.9937-0.3486c-0.5205-0.1289-0.9438-0.2646-1.2705-0.4067
		s-0.5879-0.3296-0.7837-0.562c-0.1953-0.2324-0.293-0.5186-0.293-0.8584c0-0.3022,0.0903-0.5884,0.271-0.8579
		s0.4478-0.4844,0.8003-0.645c0.3521-0.1606,0.7778-0.2407,1.2759-0.2407c0.3911,0,0.7427,0.0405,1.0547,0.1216
		s0.5723,0.1899,0.7808,0.3267s0.3672,0.2881,0.4761,0.4541s0.1631,0.3286,0.1631,0.4873c0,0.1733-0.0581,0.3154-0.1743,0.4263
		c-0.1162,0.1104-0.2812,0.166-0.4956,0.166c-0.1548,0-0.2866-0.0444-0.3955-0.1328c-0.1089-0.0889-0.2334-0.2217-0.374-0.3989
		c-0.1143-0.1475-0.249-0.2656-0.4038-0.354c-0.1553-0.0889-0.3657-0.1328-0.6313-0.1328c-0.2729,0-0.5,0.0581-0.6812,0.1743
		c-0.1807,0.1162-0.271,0.2612-0.271,0.4346c0,0.1587,0.0664,0.2886,0.1992,0.3901s0.312,0.1855,0.5371,0.252
		s0.5352,0.1475,0.9302,0.2437c0.4688,0.1143,0.8516,0.251,1.1484,0.4097c0.2974,0.1587,0.5225,0.3462,0.6758,0.562
		C69.8075,9.2458,69.8842,9.4924,69.8842,9.7693z"/>
	<path style="fill:#DBDBDA;" d="M75.3822,9.0437h-2.9565c0.0034,0.3433,0.0728,0.646,0.2075,0.9082s0.314,0.4595,0.5371,0.5923
		s0.4697,0.1992,0.7393,0.1992c0.1807,0,0.3457-0.021,0.4951-0.0635c0.1499-0.0425,0.2944-0.1089,0.4351-0.1992
		c0.1401-0.0908,0.269-0.1875,0.3872-0.291c0.1182-0.103,0.2715-0.2437,0.4595-0.4204c0.0776-0.0664,0.1885-0.1001,0.3325-0.1001
		c0.1548,0,0.2803,0.0425,0.3765,0.1274c0.0957,0.085,0.144,0.2051,0.144,0.3599c0,0.1367-0.0537,0.2964-0.1606,0.479
		c-0.1074,0.1826-0.2686,0.3579-0.4844,0.5259c-0.2163,0.168-0.4873,0.3076-0.814,0.418c-0.3267,0.1108-0.7021,0.166-1.127,0.166
		c-0.9707,0-1.7256-0.2764-2.2642-0.8301c-0.5391-0.5537-0.8086-1.3047-0.8086-2.2534c0-0.4468,0.0669-0.8608,0.1997-1.2432
		c0.1328-0.3818,0.3267-0.7095,0.5811-0.9824c0.2549-0.2734,0.5684-0.4824,0.9414-0.6284c0.3726-0.146,0.7861-0.2188,1.2402-0.2188
		c0.5903,0,1.0967,0.1245,1.5195,0.3735c0.4229,0.2495,0.7393,0.5713,0.9497,0.9663c0.21,0.395,0.3154,0.7974,0.3154,1.207
		c0,0.3799-0.1089,0.6265-0.3267,0.7388C76.0834,8.9875,75.7772,9.0437,75.3822,9.0437z M72.4257,8.1858h2.7407
		c-0.0371-0.5166-0.1768-0.9033-0.4185-1.1602c-0.2417-0.2563-0.5601-0.3848-0.9546-0.3848c-0.3765,0-0.686,0.1304-0.9277,0.3906
		S72.4774,7.6765,72.4257,8.1858z"/>
</g>
<g>
	<path style="fill:#DBDBDA;" d="M43.4277,371.3981c0.2495,0,0.4424,0.0488,0.5786,0.1475c0.0981,0.0674,0.1641,0.1543,0.1982,0.2607
		c0.0342,0.1055,0.0435,0.2119,0.0283,0.3174s-0.0493,0.2207-0.1021,0.3457s-0.104,0.2305-0.1528,0.3174
		c-0.0493,0.0869-0.104,0.1719-0.1646,0.2549c0.6274,0.0156,1.6914-0.1094,3.1919-0.374s2.7114-0.5254,3.6338-0.7822
		c0.0527-0.0146,0.1021-0.0166,0.1475-0.0059c0.0454,0.0117,0.083,0.0303,0.1133,0.0566s0.0532,0.0586,0.0684,0.0967
		c0.0151,0.0527,0.0132,0.1055-0.0059,0.1592c-0.019,0.0527-0.0586,0.0869-0.1191,0.1016c-0.937,0.2793-2.2754,0.5713-4.0137,0.873
		c-1.7388,0.3027-2.8687,0.4082-3.3901,0.3174c-0.688,0.5518-1.2622,0.7783-1.7236,0.6807c-0.0303,0-0.0586-0.0059-0.085-0.0176
		c-0.0264-0.0107-0.0513-0.0205-0.0737-0.0283c-0.1816-0.0908-0.2778-0.2451-0.2891-0.4648
		c-0.0112-0.2188,0.0435-0.4307,0.1646-0.6348c0.2568-0.5215,0.5742-0.9219,0.9521-1.2021
		C42.7626,371.5377,43.1103,371.3981,43.4277,371.3981z M42.4755,372.3844c-0.2114,0.2197-0.3892,0.4502-0.5332,0.6914
		c-0.0679,0.1211-0.1187,0.2285-0.1528,0.3232s-0.0513,0.1641-0.0513,0.21c0,0.0449,0.0117,0.0752,0.0342,0.0908
		c0.0454,0.0225,0.1006,0.0303,0.1646,0.0225c0.0645-0.0078,0.1401-0.0244,0.2266-0.0508c0.0869-0.0264,0.1738-0.0586,0.2607-0.0967
		s0.1719-0.0791,0.2554-0.125c0.083-0.0449,0.1548-0.0908,0.2153-0.1357c-0.1284-0.0752-0.2305-0.1621-0.3062-0.2607
		s-0.1211-0.2041-0.1362-0.3174S42.4453,372.5055,42.4755,372.3844z M43.0878,372.2711c-0.0757,0.0752-0.1289,0.1436-0.1587,0.2041
		c-0.0381,0.083-0.0249,0.1602,0.0396,0.2324c0.064,0.0713,0.168,0.1377,0.312,0.1982c0.0376-0.0381,0.0752-0.083,0.1133-0.1357
		c0.0376-0.0527,0.0791-0.1133,0.1245-0.1816c0.0757-0.1289,0.1323-0.2422,0.1704-0.3398c0.0376-0.0986,0.0527-0.1631,0.0449-0.1934
		c-0.0073-0.0303-0.0112-0.0527-0.0112-0.0674c-0.0225-0.0078-0.0586-0.0117-0.1074-0.0117c-0.0493,0-0.125,0.0264-0.2271,0.0791
		S43.186,372.1803,43.0878,372.2711z"/>
	<path style="fill:#DBDBDA;" d="M51.977,372.5885c0-0.0381-0.002-0.0752-0.0054-0.1133c-0.0039-0.0381-0.0059-0.0791-0.0059-0.125
		c-0.0073-0.1963,0.0112-0.3896,0.0566-0.5781s0.123-0.3535,0.2324-0.4932c0.1099-0.1396,0.2402-0.2139,0.3916-0.2217
		c0.0298,0,0.0581,0.002,0.085,0.0059c0.0264,0.0039,0.0508,0.0098,0.0737,0.0176c0.2793,0.1357,0.2002,0.6426-0.2383,1.5195
		c-0.0151,0.0146-0.0225,0.0264-0.0225,0.0332c0.1963,0.2803,0.5439,0.4648,1.043,0.5557s1.0391,0.1064,1.6216,0.0459
		c0.5815-0.0605,1.2373-0.1719,1.9668-0.335c0.7295-0.1621,1.3667-0.3232,1.9106-0.4814c0.5444-0.1592,1.085-0.333,1.6216-0.5215
		c0.083-0.0234,0.1548-0.0234,0.2153,0c0.0605,0.0225,0.0981,0.0674,0.1133,0.1357c0.0151,0.0605,0.0059,0.1172-0.0283,0.1699
		c-0.0337,0.0527-0.085,0.0869-0.1528,0.1025c-0.0532,0.0146-0.1436,0.0449-0.272,0.0908
		c-0.3633,0.1133-0.6577,0.2061-0.8848,0.2773c-0.2266,0.0723-0.5742,0.1777-1.043,0.3174s-0.873,0.2461-1.2134,0.3174
		c-0.3398,0.0723-0.7427,0.1533-1.2075,0.2441s-0.877,0.1416-1.2358,0.1533c-0.3589,0.0107-0.7241,0.0068-1.0942-0.0117
		c-0.3706-0.0186-0.6953-0.085-0.9751-0.1982s-0.5142-0.2646-0.7031-0.4541c-0.0073,0.0078-0.0283,0.0342-0.062,0.0801
		c-0.0342,0.0449-0.0605,0.0791-0.0796,0.1016s-0.0454,0.0547-0.0791,0.0967c-0.0342,0.041-0.0645,0.0771-0.0908,0.1074
		c-0.0269,0.0303-0.0566,0.0664-0.0908,0.1074c-0.0342,0.042-0.0698,0.0781-0.1079,0.1084
		c-0.4004,0.3926-0.7329,0.4531-0.9976,0.1807c-0.1284-0.1357-0.1929-0.5078-0.1929-1.1162s0.0415-1.0674,0.125-1.3779
		c0.0298-0.1582,0.0981-0.2607,0.2041-0.3057c0.0298-0.0078,0.0581-0.0137,0.085-0.0176c0.0264-0.0039,0.0508-0.002,0.0737,0.0059
		c0.0225,0.0078,0.0454,0.0186,0.0679,0.0342c0.0225,0.0146,0.0415,0.0322,0.0566,0.0508c0.0151,0.0195,0.0264,0.0439,0.0342,0.0742
		c0.0073,0,0.0112,0.0039,0.0112,0.0107c0.0225,0.0908-0.0078,0.1631-0.0908,0.2158c-0.0454,0.1963-0.0737,0.4512-0.085,0.7646
		c-0.0112,0.3145-0.0112,0.584,0,0.8115c0.0112,0.2266,0.0244,0.3701,0.0396,0.4307c0.0078,0.0527,0.0229,0.083,0.0454,0.0908
		c0.0527,0.0381,0.1831-0.0586,0.3911-0.2891S51.8564,372.7701,51.977,372.5885z"/>
	<path style="fill:#DBDBDA;" d="M68.2026,372.2936c-0.416,0.2119-1.2983,0.5439-2.6479,0.998
		c-1.3491,0.4531-2.4927,0.7295-3.4297,0.8271c-0.2568,0.0303-0.499,0.04-0.7256,0.0283c-0.2271-0.0107-0.4233-0.0469-0.5898-0.1074
		c-0.0903-0.0303-0.168-0.0713-0.2324-0.125c-0.064-0.0527-0.1133-0.1152-0.1475-0.1865c-0.0337-0.0723-0.0601-0.1455-0.0791-0.2217
		c-0.019-0.0752-0.0264-0.1602-0.0229-0.2549c0.0039-0.0947,0.0117-0.1797,0.0229-0.2549s0.0303-0.1641,0.0566-0.2666
		c0.0264-0.1016,0.0493-0.1875,0.0679-0.2549c0.019-0.0684,0.0439-0.1494,0.0737-0.2441c0.0303-0.0947,0.0532-0.1641,0.0684-0.21
		c0.0151-0.0605,0.0469-0.1094,0.0962-0.1475c0.0488-0.0371,0.104-0.0527,0.1646-0.0449c0.0601,0.0078,0.1074,0.04,0.1416,0.0967
		s0.0435,0.1152,0.0283,0.1758s-0.0381,0.1436-0.0679,0.249c-0.1211,0.4463-0.1875,0.7354-0.1987,0.8672
		c-0.0112,0.1328,0.04,0.2598,0.1533,0.3799c0.2266,0.1211,0.6157,0.1514,1.168,0.0908c0.6348-0.0752,1.4512-0.2666,2.4487-0.5723
		c0.998-0.3066,1.8086-0.5801,2.4321-0.8223c0.624-0.2422,0.9619-0.3779,1.0151-0.4082c0.0073,0,0.0151,0,0.0225,0
		c0.0605-0.0146,0.1152-0.0166,0.1646-0.0059c0.0488,0.0117,0.085,0.04,0.1074,0.085c0.0303,0.0381,0.0435,0.0801,0.04,0.125
		c-0.0039,0.0449-0.0171,0.085-0.04,0.1191C68.2705,372.2428,68.2402,372.2711,68.2026,372.2936z M61.5805,370.8307
		c-0.0679,0.0527-0.1548,0.1211-0.2607,0.2041s-0.1738,0.1406-0.2041,0.1699c-0.1357,0.1367-0.2534,0.167-0.3516,0.0908
		c-0.1133-0.0908-0.1021-0.2188,0.0342-0.3848c0-0.0078,0.002-0.0117,0.0059-0.0117c0.0034,0,0.0054-0.0039,0.0054-0.0117
		l0.5103-0.4424c0.0078,0,0.0117-0.0029,0.0117-0.0107c0.0679-0.0459,0.1416-0.0664,0.2207-0.0625
		c0.0796,0.0039,0.1382,0.0361,0.1758,0.0967C61.8188,370.6119,61.7695,370.733,61.5805,370.8307z"/>
	<path style="fill:#DBDBDA;" d="M69.3476,372.0778c0.0752-0.0449,0.1396-0.0596,0.1924-0.0449
		c0.1362,0.0449,0.1475,0.2197,0.0342,0.5215l-0.0112,0.0566c-0.0605,0.2871-0.0454,0.5293,0.0454,0.7256
		c0.1357,0.2949,0.459,0.4785,0.9692,0.5498c0.5103,0.0723,1.1001,0.0537,1.769-0.0566c0.6689-0.1094,1.3867-0.2734,2.1543-0.4932
		c0.7671-0.2188,1.4834-0.4512,2.1484-0.6973c0.665-0.2451,1.2476-0.4893,1.7461-0.7314c0.0381-0.0146,0.0796-0.0244,0.125-0.0283
		s0.085,0.0059,0.1191,0.0283c0.0337,0.0225,0.0581,0.0527,0.0737,0.0908c0.0225,0.0684,0.0146,0.1309-0.0229,0.1875
		c-0.0381,0.0566-0.0908,0.0957-0.1587,0.1191c-0.9526,0.4229-2.0449,0.8408-3.2769,1.2529s-2.3545,0.6709-3.3677,0.7764
		c-1.7915,0.1895-2.7437-0.2568-2.8574-1.3379c-0.1436,0.1211-0.291,0.2422-0.4419,0.3623c-0.7407,0.6055-1.27,0.8164-1.5874,0.6357
		c-0.0376-0.0156-0.0679-0.0381-0.0908-0.0684c-0.3403-0.3555-0.0376-0.9785,0.9072-1.8711
		c0.1284-0.1211,0.2397-0.2207,0.3345-0.2998c0.0942-0.0801,0.187-0.1475,0.2778-0.2041c0.0908-0.0576,0.1738-0.0947,0.2495-0.1143
		c0.0752-0.0186,0.1489-0.0225,0.2207-0.0107c0.0718,0.0107,0.1421,0.043,0.21,0.0957c0.0981,0.0615,0.168,0.1426,0.21,0.2441
		C69.3608,371.8688,69.3701,371.9723,69.3476,372.0778z M68.9394,372.4186h-0.0117c-0.0679-0.0303-0.1035-0.085-0.1074-0.165
		c-0.0039-0.0791,0.0054-0.1455,0.0283-0.1982c0.0151-0.083,0.0151-0.1396,0-0.1699c-0.0303-0.0078-0.085,0.0117-0.1646,0.0566
		c-0.0791,0.0459-0.1851,0.125-0.3174,0.2383s-0.2739,0.249-0.4253,0.4082c-0.1587,0.166-0.291,0.3252-0.397,0.4766
		c-0.1055,0.1504-0.1753,0.2676-0.2095,0.3506c-0.0342,0.084-0.0474,0.1406-0.0396,0.1709c0.0605,0,0.1641-0.0381,0.3115-0.1133
		c0.1475-0.0762,0.3271-0.1934,0.5386-0.3516c0.2114-0.1592,0.4155-0.333,0.6123-0.5215c0.0229-0.0156,0.0547-0.0439,0.0967-0.0859
		C68.8955,372.4733,68.9243,372.441,68.9394,372.4186z"/>
</g>
<path style="fill:#DBDBDA;" d="M96.8648,20.5219L96.8648,20.5219c7.7039,0,14.0072,6.3032,14.0072,14.0071v0.0001
	c0,7.7039-6.3032,14.0071-14.0071,14.0071l0,0c-7.7039,0-14.0071-6.3032-14.0071-14.0071V34.529
	C82.8577,26.8251,89.1609,20.5219,96.8648,20.5219z"/>
<g>
	<g>
		
			<radialGradient id="SVGID_1_" cx="-1681.6066" cy="1082.9128" r="4.8363" gradientTransform="matrix(-0.9816 0.191 0.191 0.9816 -1751.2109 -733.3764)" gradientUnits="userSpaceOnUse">
			<stop  offset="0" style="stop-color:#414141"/>
			<stop  offset="1" style="stop-color:#1B1C1C"/>
		</radialGradient>
		
			<radialGradient id="SVGID_2_" cx="-1681.6066" cy="1082.9128" r="5.3363" gradientTransform="matrix(-0.9816 0.191 0.191 0.9816 -1751.2109 -733.3764)" gradientUnits="userSpaceOnUse">
			<stop  offset="0" style="stop-color:#818282"/>
			<stop  offset="1" style="stop-color:#545554"/>
		</radialGradient>
		<circle style="fill:url(#SVGID_1_);stroke:url(#SVGID_2_);stroke-miterlimit:10;" cx="106.3018" cy="8.4218" r="4.8"/>
		<path style="fill:#BBBBBB;" d="M101.9018,9.3217c0.5,2.4,2.8,4,5.2,3.5c2.4-0.5,4-2.8,3.5-5.2s-2.8-4-5.2-3.5
			C103.0018,4.5217,101.4018,6.8217,101.9018,9.3217z M103.4018,9.0218l1-2.8l2.9-0.6l1.9,2.2l-1,2.8l-2.9,0.6L103.4018,9.0218z"/>
		<circle style="fill:none;stroke:#ECECEC;stroke-miterlimit:10;" cx="106.3018" cy="8.4218" r="4.5"/>
		<polygon style="opacity:0.05;fill:none;stroke:#DCD6DC;stroke-miterlimit:10;enable-background:new    ;" points="
			103.4018,9.0218 104.3018,6.2217 107.3018,5.6217 109.2018,7.8217 108.2018,10.6217 105.3018,11.2218 		"/>
	</g>
	<g>
		
			<radialGradient id="SVGID_3_" cx="-109.1629" cy="1503.6334" r="4.8363" gradientTransform="matrix(-0.2487 0.9686 0.9686 0.2487 -1468.558 -259.8218)" gradientUnits="userSpaceOnUse">
			<stop  offset="0" style="stop-color:#414141"/>
			<stop  offset="1" style="stop-color:#1B1C1C"/>
		</radialGradient>
		
			<radialGradient id="SVGID_4_" cx="-109.1629" cy="1503.6235" r="5.3313" gradientTransform="matrix(-0.2487 0.9686 0.9686 0.2487 -1468.558 -259.8218)" gradientUnits="userSpaceOnUse">
			<stop  offset="0" style="stop-color:#818282"/>
			<stop  offset="1" style="stop-color:#545554"/>
		</radialGradient>
		<circle style="fill:url(#SVGID_3_);stroke:url(#SVGID_4_);stroke-miterlimit:10;" cx="14.9934" cy="8.4218" r="4.8"/>
		<path style="fill:#BBBBBB;" d="M13.918,12.7822c2.3823,0.5784,4.8146-0.8124,5.3929-3.1948
			c0.5784-2.3823-0.8124-4.8146-3.1948-5.3929s-4.8146,0.8124-5.3929,3.1948C10.0546,9.7287,11.4454,12.1609,13.918,12.7822z
			 M14.2908,11.2986l-2.0999-2.1049l0.7026-2.8769l2.8025-0.772l2.0999,2.1049l-0.7026,2.8769L14.2908,11.2986z"/>
		<circle style="fill:none;stroke:#ECECEC;stroke-miterlimit:10;" cx="14.9934" cy="8.4218" r="4.5"/>
		<polygon style="opacity:0.05;fill:none;stroke:#DCD6DC;stroke-miterlimit:10;enable-background:new    ;" points="
			14.2908,11.2986 12.148,9.2841 12.8935,6.3169 15.696,5.5449 17.7959,7.6498 17.0933,10.5266 		"/>
	</g>
	<g>
		
			<radialGradient id="SVGID_5_" cx="-1611.1328" cy="1438.9272" r="4.8363" gradientTransform="matrix(-0.9816 0.191 0.191 0.9816 -1751.2109 -733.3764)" gradientUnits="userSpaceOnUse">
			<stop  offset="0" style="stop-color:#414141"/>
			<stop  offset="1" style="stop-color:#1B1C1C"/>
		</radialGradient>
		
			<radialGradient id="SVGID_6_" cx="-1611.1328" cy="1438.9272" r="5.3363" gradientTransform="matrix(-0.9816 0.191 0.191 0.9816 -1751.2109 -733.3764)" gradientUnits="userSpaceOnUse">
			<stop  offset="0" style="stop-color:#818282"/>
			<stop  offset="1" style="stop-color:#545554"/>
		</radialGradient>
		<circle style="fill:url(#SVGID_5_);stroke:url(#SVGID_6_);stroke-miterlimit:10;" cx="105.1234" cy="371.346" r="4.8"/>
		<path style="fill:#BBBBBB;" d="M100.7234,372.246c0.5,2.4,2.8,4,5.2,3.5c2.4-0.5,4-2.8,3.5-5.2c-0.5-2.4-2.8-4-5.2-3.5
			C101.8234,367.446,100.2234,369.746,100.7234,372.246z M102.2234,371.946l1-2.8l2.9-0.6l1.9,2.2l-1,2.8l-2.9,0.6L102.2234,371.946
			z"/>
		<circle style="fill:none;stroke:#ECECEC;stroke-miterlimit:10;" cx="105.1234" cy="371.346" r="4.5"/>
		<polygon style="opacity:0.05;fill:none;stroke:#DCD6DC;stroke-miterlimit:10;enable-background:new    ;" points="
			102.2234,371.946 103.1234,369.146 106.1234,368.546 108.0234,370.746 107.0234,373.546 104.1234,374.146 		"/>
	</g>
	<g>
		
			<radialGradient id="SVGID_7_" cx="242.6447" cy="1592.7639" r="4.8363" gradientTransform="matrix(-0.2487 0.9686 0.9686 0.2487 -1468.558 -259.8218)" gradientUnits="userSpaceOnUse">
			<stop  offset="0" style="stop-color:#414141"/>
			<stop  offset="1" style="stop-color:#1B1C1C"/>
		</radialGradient>
		
			<radialGradient id="SVGID_8_" cx="242.6447" cy="1592.7639" r="5.3363" gradientTransform="matrix(-0.2487 0.9686 0.9686 0.2487 -1468.558 -259.8218)" gradientUnits="userSpaceOnUse">
			<stop  offset="0" style="stop-color:#818282"/>
			<stop  offset="1" style="stop-color:#545554"/>
		</radialGradient>
		<circle style="fill:url(#SVGID_7_);stroke:url(#SVGID_8_);stroke-miterlimit:10;" cx="13.815" cy="371.346" r="4.8"/>
		<path style="fill:#BBBBBB;" d="M12.7396,375.7065c2.3823,0.5784,4.8146-0.8124,5.3929-3.1948
			c0.5784-2.3823-0.8124-4.8145-3.1948-5.3929c-2.3823-0.5783-4.8146,0.8124-5.3929,3.1948
			C8.8762,372.653,10.2669,375.0852,12.7396,375.7065z M13.1124,374.2229l-2.0999-2.1049l0.7026-2.8769l2.8025-0.772l2.0999,2.1049
			l-0.7026,2.8769L13.1124,374.2229z"/>
		<circle style="fill:none;stroke:#ECECEC;stroke-miterlimit:10;" cx="13.815" cy="371.346" r="4.5"/>
		<polygon style="opacity:0.05;fill:none;stroke:#DCD6DC;stroke-miterlimit:10;enable-background:new    ;" points="
			13.1124,374.2229 10.9695,372.2083 11.7151,369.2412 14.5176,368.4692 16.6175,370.574 15.9149,373.4509 		"/>
	</g>
</g>
</svg>
