<?xml version="1.0" encoding="utf-8"?>
<!-- Generator: Adobe Illustrator 23.0.6, SVG Export Plug-In . SVG Version: 6.00 Build 0)  -->
<svg version="1.1" id="Layer_1" xmlns="http://www.w3.org/2000/svg" xmlns:xlink="http://www.w3.org/1999/xlink" x="0px" y="0px"
	 width="26.2000008px" height="26.1999969px" viewBox="0 0 26.2000008 26.1999969"
	 style="enable-background:new 0 0 26.2000008 26.1999969;" xml:space="preserve">
<circle style="fill:#484748;" cx="13.0999985" cy="13.0999985" r="13.0999985"/>
<path style="fill:#CCCCCB;" d="M14.6140795,0.0943019c-0.4975586-0.057373-1.0011597-0.0942993-1.5140991-0.0942993
	c-0.5128784,0-1.0165405,0.0369263-1.5140381,0.0942993v5.2337036h3.0281372V0.0943019z"/>
<path style="fill:#F9F9FA;" d="M14.2838182,4.9219384V0.073733c-0.3912354-0.0372925-0.7827759-0.0737305-1.1838379-0.0737305
	c-0.5128784,0-1.0165405,0.0369263-1.5140381,0.0942993v4.8276367H14.2838182z"/>
<path style="fill:#414042;" d="M14.6140795,0.0943019v5.2337036h-3.0281372V0.0943019
	c-0.0956421,0.0109863-0.1884766,0.0302124-0.2834473,0.0432739v5.1904297v0.2834473h0.2834473h3.0281372h0.2834473V5.3280053
	V0.1375758C14.802556,0.1245143,14.7096605,0.1052882,14.6140795,0.0943019z"/>
</svg>
