<?xml version="1.0" encoding="utf-8"?>
<!-- Generator: Adobe Illustrator 23.0.6, SVG Export Plug-In . SVG Version: 6.00 Build 0)  -->
<svg version="1.1" id="Layer_1" xmlns="http://www.w3.org/2000/svg" xmlns:xlink="http://www.w3.org/1999/xlink" x="0px" y="0px"
	 width="23.4654px" height="24.76px" viewBox="0 0 23.4654 24.76" style="enable-background:new 0 0 23.4654 24.76;"
	 xml:space="preserve">
<circle style="opacity:0.5;fill:#010101;enable-background:new    ;" cx="11.7327" cy="13.2935" r="11.4665"/>
<circle style="fill:#30302F;" cx="11.7327" cy="12.0606" r="11.4665"/>
<circle style="fill:#010101;" cx="11.7327" cy="12.0606" r="10.2336"/>
<path style="fill:#EFEDE4;" d="M11.7327,0L11.7327,0C6.3298,0,1.9092,4.4206,1.9092,9.8235v2.2371
	c0,5.4029,4.4206,9.8235,9.8235,9.8235l0,0c5.4029,0,9.8235-4.4206,9.8235-9.8235V9.8235C21.5562,4.4206,17.1356,0,11.7327,0z"/>
<path style="opacity:0.35;fill:#010101;" d="M11.7327,19.647c-4.9014,0-8.9976-3.5245-9.8235-8.1228l-0.2284,0.5364
	c0,5.4029,4.6223,10.097,10.0252,10.097c5.4029,0,10.0252-4.6942,10.0252-10.097l-0.175-0.5364
	C20.7302,16.1225,16.634,19.647,11.7327,19.647z"/>
</svg>
