<?xml version="1.0" encoding="utf-8"?>
<!-- Generator: Adobe Illustrator 23.0.6, SVG Export Plug-In . SVG Version: 6.00 Build 0)  -->
<svg version="1.1" id="Layer_1" xmlns="http://www.w3.org/2000/svg" xmlns:xlink="http://www.w3.org/1999/xlink" x="0px" y="0px"
	 width="18.6px" height="22.6px" viewBox="0 0 18.6 22.6" style="enable-background:new 0 0 18.6 22.6;" xml:space="preserve">
<path style="opacity:0.3;enable-background:new    ;" d="M9.3,22.6c-5.1,0-9.3-4.2-9.3-9.3S4.2,4,9.3,4c5.1,0,9.3,4.2,9.3,9.3
	S14.4,22.6,9.3,22.6z"/>
<circle style="fill:#262626;" cx="9.2" cy="11.3" r="7.5"/>
<g>
	<ellipse style="fill:#070808;" cx="9.3" cy="12.1" rx="5.2" ry="4.4"/>
</g>
<g>
	<path style="fill:#181818;" d="M9.3,6C6.4,6,4,8.4,4,11.3c0,0.3,0,0.6,0.1,0.8c0.4-2.5,2.6-4.4,5.2-4.4s4.8,1.9,5.2,4.4
		c0-0.3,0.1-0.5,0.1-0.8C14.5,8.4,12.2,6,9.3,6z"/>
</g>
<path style="fill:#ABABAB;" d="M9.3,20.6c-5.1,0-9.3-4.2-9.3-9.3S4.2,2,9.3,2s9.3,4.2,9.3,9.3S14.4,20.6,9.3,20.6z M9.3,6.1
	c-2.9,0-5.2,2.3-5.2,5.2s2.3,5.2,5.2,5.2s5.2-2.3,5.2-5.2S12.2,6.1,9.3,6.1z"/>
</svg>
